<svg version="1.1" id="Layer_1" xmlns="http://www.w3.org/2000/svg" xmlns:xlink="http://www.w3.org/1999/xlink" viewBox="0 0 512 512" xml:space="preserve">
    <style type="text/css">
      .st0{fill:#5C6BC0;}
      .st1{fill:#8E99F3;}
    </style>
    <g>
      <path class="st0" d="M256,0C114.62,0,0,114.62,0,256s114.62,256,256,256s256-114.62,256-256S397.38,0,256,0z M256,472
        c-119.38,0-216-96.62-216-216S136.62,40,256,40s216,96.62,216,216S375.38,472,256,472z"/>
      <path class="st1" d="M256,0v40c119.38,0,216,96.62,216,216s-96.62,216-216,216v40c141.38,0,256-114.62,256-256S397.38,0,256,0z"/>
      <path class="st0" d="M391.68,182.77c-19.57-34.23-60.68-46.51-97.34-29.42c-17.58,8.05-33.32,19.69-46.34,34.24
        c-12.92-14.47-28.55-26.04-46.01-34.01c-36.73-17.08-77.9-4.82-97.44,29.28c-16.27,28.45-8.85,66.05,20.29,89.25l63.97,54.12
        c0.37,0.31,0.75,0.61,1.14,0.9c16.92,13.28,38.32,13.3,55.24,0c0.39-0.29,0.77-0.59,1.14-0.9l63.97-54.12
        C400.53,248.82,407.95,211.22,391.68,182.77z M160.25,232.47c-14.7-12.45-19.16-32.45-10.5-48.62c7.37-12.91,21.19-20.26,36.66-20.26
        c6.22,0,12.58,1.28,18.76,4.04c14.16,6.57,25.88,17.34,34.38,31.45c-20.49,14.86-37.32,34.86-49.33,57.98L160.25,232.47z
         M352.25,232.47l-29.22,25.66c-12.01-23.13-28.84-43.12-49.33-57.98c8.5-14.11,20.22-24.88,34.38-31.45
        c6.19-2.76,12.54-4.04,18.76-4.04c15.47,0,29.29,7.35,36.66,20.26C371.41,200.02,366.95,220.02,352.25,232.47z"/>
    </g>
</svg>  